PathFileType	4	(X/Y/Z)	C:\Users\WrightLab\Desktop\Jo\P3_19.trc
DataRate	CameraRate	NumFrames	NumMarkers	Units	OrigDataRate	OrigDataStartFrame	OrigNumFrames
100.00	100.00	       19	19	mm	100.00	92	       731
Frame#	Time	Headset_Front			Headset_Back			Headset_Left			Headset_Right			Left_Shoulder			Right_Shoulder			Sternum			C7			Left Elbow			Right Elbow			Left Wrist			Right Wrist			Left ASIS			Right ASIS			S2			Left Knee			Right Knee			Left Ankle			Right Ankle			
		X1	Y1	Z1	X2	Y2	Z2	X3	Y3	Z3	X4	Y4	Z4	X5	Y5	Z5	X6	Y6	Z6	X7	Y7	Z7	X8	Y8	Z8	X9	Y9	Z9	X10	Y10	Z10	X11	Y11	Z11	X12	Y12	Z12	X13	Y13	Z13	X14	Y14	Z14	X15	Y15	Z15	X16	Y16	Z16	X17	Y17	Z17	X18	Y18	Z18	X19	Y19	Z19	

92	0.910	-727.74274	1474.99561	-1182.11560										-432.56381	1298.91858	-1293.32654	-782.57135	1294.94861	-1373.49939	-628.40521	1169.06372	-1215.25903				-369.64276	962.49402	-1288.62830				-418.15491	788.26740	-1186.70007	-889.68860	776.75226	-1258.12000	-519.09796	816.41608	-1240.79907							-541.32776	443.97101	-1112.56628	-733.22748	395.88214	-1375.46204	-516.36426	123.67001	-1222.71240	-703.13428	66.97305	-1442.70300	
93	0.920	-728.78870	1474.83667	-1175.05725										-434.06097	1296.84583	-1283.69495	-784.94733	1295.05103	-1366.70166	-629.93695	1168.67078	-1209.56262				-372.07437	961.51147	-1282.26355				-420.47705	787.72284	-1181.10132	-889.44104	775.38623	-1250.46387	-520.68262	816.28552	-1233.53320							-542.75366	444.09027	-1103.72522	-733.58582	394.51251	-1374.69067	-521.08832	117.85567	-1201.47473	-702.99866	67.14626	-1442.14612	
94	0.930	-729.80676	1474.47144	-1167.72253										-435.32938	1296.45984	-1278.58423	-786.48633	1294.90918	-1360.46875	-630.93225	1167.93311	-1202.39771				-374.03195	960.72449	-1277.20837				-423.04391	786.73077	-1174.36682	-890.00482	774.70203	-1243.51526	-521.39825	815.98767	-1226.66199							-544.62964	443.09412	-1098.23132	-734.52313	392.90921	-1369.14185	-526.92926	112.68941	-1174.35669	-702.96307	67.19361	-1442.00073	
95	0.940	-730.68298	1474.26379	-1160.38403										-437.29691	1296.76233	-1274.76025	-788.67975	1293.68396	-1350.97534	-632.39673	1167.02026	-1194.90552				-376.34698	959.12103	-1269.82104				-425.26276	785.15533	-1169.24780	-891.20129	773.87671	-1234.16162	-522.92554	815.09668	-1219.48230							-545.06049	443.30518	-1092.31458	-735.22284	393.21085	-1364.75220	-531.39435	109.33900	-1151.14880	-702.85297	67.31956	-1441.54407	
96	0.950	-731.41376	1474.06946	-1152.96619	-623.53534	1427.02063	-1054.43372							-437.78745	1294.04700	-1263.67419	-789.78607	1294.74060	-1347.64758	-633.52472	1165.75769	-1187.83545				-378.12921	959.05255	-1265.68359				-426.16418	784.00385	-1162.76746	-891.05145	773.34058	-1228.12341	-524.10510	815.28418	-1213.44824							-546.58875	440.43726	-1088.50928	-736.20807	394.55820	-1358.87378	-537.18835	105.44918	-1126.57166	-702.74353	67.44827	-1441.09131	
97	0.960	-732.11798	1473.66895	-1145.29041										-438.73453	1294.28125	-1260.30713	-791.79846	1292.98242	-1336.59888	-633.98059	1165.56909	-1181.08105				-379.79282	957.28021	-1258.11914				-428.44769	783.01099	-1156.59094	-893.30304	773.09143	-1219.38037	-525.10651	815.72974	-1204.53491							-547.07336	439.82953	-1082.14490	-736.10889	390.94501	-1358.48706	-540.67834	102.83705	-1104.05896				
98	0.970	-732.67706	1473.28137	-1137.46436	-622.64319	1425.21484	-1040.04175							-440.48193	1292.22095	-1249.55750	-792.81091	1292.89917	-1330.68237	-635.20038	1164.30408	-1173.80847				-381.48267	956.90375	-1252.52380				-430.00867	781.18787	-1151.35693	-892.96948	772.08063	-1211.96533	-527.89868	813.95770	-1196.90076							-548.11908	436.23196	-1079.73926	-736.97797	389.62326	-1354.47864	-544.58716	100.72691	-1082.20447				
99	0.980	-733.22162	1472.76392	-1129.56726	-623.39526	1425.11450	-1032.86560							-441.29639	1292.52209	-1245.85217	-794.59827	1291.10425	-1319.50574	-636.85144	1163.83228	-1166.11743				-382.74863	955.31604	-1245.08386	-872.94452	944.84814	-1351.21460	-430.97083	779.74823	-1144.13684	-892.99561	771.30383	-1204.72021	-528.67688	814.33826	-1190.16626							-548.67621	434.41357	-1074.51440	-737.99524	387.92789	-1350.68176	-548.40936	99.57003	-1059.76929				
100	0.990	-733.64648	1472.20313	-1121.68359	-624.14392	1424.57349	-1024.92786							-441.63171	1289.84033	-1234.69092	-795.02991	1291.46252	-1315.06287	-637.54175	1162.34241	-1158.69458				-384.05435	954.52179	-1238.96130	-873.60083	944.24847	-1343.33191	-431.34378	778.85291	-1138.06677	-892.80151	770.21436	-1196.18579	-530.44312	814.53778	-1180.76135							-549.73840	433.17166	-1068.51221	-738.95941	388.42218	-1344.20349	-550.17834	101.16830	-1039.39868				
101	1.000	-734.09479	1471.70618	-1113.76172	-623.34375	1423.79761	-1017.19232							-443.43158	1289.79480	-1228.67200	-796.42224	1290.45752	-1305.97876	-638.73315	1161.35901	-1151.22607				-385.42041	952.70551	-1230.41931	-874.27692	943.37109	-1335.00305	-432.32797	777.77661	-1131.73047	-892.89899	769.61798	-1188.75732	-531.95245	812.82709	-1173.63599							-550.45624	430.72986	-1063.91553	-739.77386	389.11630	-1337.46521	-552.13025	102.04945	-1021.96136				
102	1.010	-734.34375	1471.28882	-1106.12305	-623.30603	1423.18994	-1009.00531							-443.87271	1289.16223	-1222.12866	-797.09802	1289.75537	-1298.34070	-639.54285	1160.81726	-1144.24939				-385.74869	951.92670	-1224.94543	-874.88068	942.72809	-1327.12878	-431.91791	775.37952	-1125.61121	-892.55438	768.40314	-1181.37793	-534.92206	813.26849	-1162.78040							-552.27032	429.72363	-1058.30371	-740.20074	385.54767	-1336.37866	-556.23279	102.17915	-1005.86841				
103	1.020													-444.46545	1288.03491	-1214.18542	-797.35138	1289.60718	-1291.56262	-640.71063	1160.00525	-1135.69189				-386.63992	950.31763	-1216.16565	-875.25269	942.27319	-1318.86694	-432.91132	774.03796	-1119.06189	-892.76410	768.47046	-1173.35645	-536.20892	812.59680	-1155.54639							-552.08984	429.94675	-1050.49780	-740.47766	384.76730	-1332.97717	-557.26154	103.90753	-991.13879				
104	1.030	-734.61932	1470.35303	-1090.37952	-623.68280	1422.63147	-993.85101							-445.76401	1288.46680	-1209.36365	-797.81439	1288.16443	-1283.75195	-641.88519	1159.92822	-1128.52576				-387.96329	950.50476	-1210.85986	-875.60254	941.63757	-1310.40295	-433.24725	772.54071	-1111.06812	-892.34204	767.49799	-1165.00171	-538.35394	812.46149	-1146.10376							-555.41785	425.73230	-1048.45007	-741.26111	385.19366	-1320.51843	-559.11053	103.45663	-980.10071				
105	1.040	-623.93304	1422.11792	-986.18396	-634.20837	1565.57837	-1254.82568							-445.65112	1285.87903	-1197.67761	-797.87415	1288.03259	-1276.72546	-642.54279	1159.45593	-1120.62097	-619.17859	1344.27124	-1279.28577	-388.76517	948.85583	-1203.06689	-875.96637	941.04681	-1302.17859	-434.78485	770.51324	-1109.21973	-891.90350	766.76361	-1157.27429	-540.88336	812.06769	-1137.08923							-556.86298	427.19107	-1036.68518	-741.72614	385.10144	-1313.35999	-560.88080	102.98849	-971.03540				
106	1.050	-622.55457	1421.11487	-979.09100	-634.28864	1565.15381	-1247.52856	-734.75244	1468.86865	-1074.85254				-445.55664	1285.54443	-1192.08289	-797.78973	1287.76233	-1269.04688	-643.06921	1159.80566	-1112.70300	-618.64838	1347.37634	-1280.39453	-388.78253	948.73248	-1197.05298	-876.13916	940.66241	-1294.02197	-434.11615	767.92126	-1102.85144	-890.98389	766.50873	-1149.19751	-542.31952	812.12103	-1129.50464							-558.38855	427.97690	-1028.06152	-741.41162	383.74005	-1306.19714	-561.91260	101.97777	-964.69501				
107	1.060	-618.66486	1346.36951	-1272.59082	-634.27094	1564.34509	-1239.73596	-734.66821	1468.30554	-1067.50415				-445.46039	1284.03979	-1183.29907	-797.41547	1287.02063	-1261.82837	-643.66864	1159.02209	-1104.22729				-388.58463	946.85553	-1187.02173	-876.22858	940.61670	-1286.43274	-433.42142	767.35870	-1094.65649	-891.16650	765.20032	-1140.66602	-544.47449	811.94482	-1118.27490							-560.34668	426.80386	-1017.93365	-741.52466	383.02118	-1302.14844	-562.91907	98.91195	-959.62506				
108	1.070	-623.08221	1420.11682	-963.36682	-634.09772	1563.79724	-1231.90015	-734.44470	1467.79822	-1059.94495				-446.31314	1284.01392	-1177.29187	-797.98914	1287.36316	-1254.42859	-644.57751	1158.49329	-1095.33569				-388.70215	945.69226	-1178.82532	-876.45233	940.15582	-1278.54431	-433.72562	764.58490	-1087.96814	-890.74274	765.90125	-1133.19751	-546.10919	811.30457	-1108.95532							-563.10468	425.47943	-1012.34991	-743.06348	381.47809	-1292.42944	-562.48114	97.25927	-958.35455				
109	1.080	-621.86487	1419.71753	-955.83649	-633.80481	1563.21814	-1224.58301	-734.14752	1467.18005	-1052.29065				-446.16003	1281.89587	-1166.44482	-797.73041	1287.38684	-1247.13843	-644.20135	1158.48950	-1088.18958				-389.19931	944.34772	-1169.71313	-876.32440	940.02435	-1270.79150	-433.99799	763.10071	-1082.07788	-890.74139	765.92291	-1125.93433	-547.59857	810.77899	-1099.85413							-563.56732	425.03784	-999.85059	-743.26086	382.00354	-1287.51550	-561.84320	93.92729	-957.73389				
110	1.090	-622.86932	1419.55957	-948.01855	-633.32043	1562.76526	-1217.03857							-445.80127	1281.71375	-1160.97632	-797.34155	1286.57104	-1239.15234	-645.41772	1158.27881	-1079.22083				-389.04175	944.74933	-1166.31226	-876.19226	939.98236	-1263.44702	-432.71167	761.82593	-1074.03918	-890.01984	765.27765	-1117.80811	-548.38678	810.16113	-1089.81897				-599.44763	891.04474	-1331.38000	-566.30054	423.49231	-992.17004	-744.22632	379.76706	-1282.40076	-562.33759	93.38516	-953.68573				
